{
  "accessors": [
    {
      "bufferView": 2,
      "componentType": 5126,
      "count": 65532,
      "max": [
        0.19130299985408783,
        0.19495899975299835,
        -0.04165500029921532
      ],
      "min": [
        -0.17212599515914917,
        -0.19323599338531494,
        -0.43632999062538147
      ],
      "type": "VEC3"
    },
    {
      "bufferView": 2,
      "byteOffset": 786384,
      "componentType": 5126,
      "count": 65532,
      "max": [
        0.9999359846115112,
        0.9999990463256836,
        0.9999263286590576
      ],
      "min": [
        -0.9999923706054688,
        -0.9999769926071167,
        -0.9999216794967651
      ],
      "type": "VEC3"
    },
    {
      "bufferView": 3,
      "componentType": 5126,
      "count": 65532,
      "max": [
        0.9999314546585083,
        0.9999790191650391,
        0.9999913573265076,
        1.0
      ],
      "min": [
        -0.999984622001648,
        -0.9999949932098389,
        -0.9999822974205017,
        -1.0
      ],
      "type": "VEC4"
    },
    {
      "bufferView": 1,
      "componentType": 5126,
      "count": 65532,
      "max": [
        0.9996169805526733,
        0.9996169805526733
      ],
      "min": [
        0.00038300000596791506,
        0.00038301944732666016
      ],
      "type": "VEC2"
    },
    {
      "bufferView": 1,
      "byteOffset": 524256,
      "componentType": 5126,
      "count": 65532,
      "max": [
        0.9996169805526733,
        0.9996169805526733
      ],
      "min": [
        0.00038300000596791506,
        0.00038301944732666016
      ],
      "type": "VEC2"
    },
    {
      "bufferView": 1,
      "byteOffset": 1048512,
      "componentType": 5126,
      "count": 65532,
      "max": [
        0.9996169805526733,
        0.9996169805526733
      ],
      "min": [
        0.00038300000596791506,
        0.00038301944732666016
      ],
      "type": "VEC2"
    },
    {
      "bufferView": 1,
      "byteOffset": 1572768,
      "componentType": 5126,
      "count": 65532,
      "max": [
        0.9996169805526733,
        0.9996169805526733
      ],
      "min": [
        0.00038300000596791506,
        0.00038301944732666016
      ],
      "type": "VEC2"
    },
    {
      "bufferView": 0,
      "componentType": 5125,
      "count": 307356,
      "type": "SCALAR"
    },
    {
      "bufferView": 2,
      "byteOffset": 1572768,
      "componentType": 5126,
      "count": 65532,
      "max": [
        0.04774700105190277,
        0.20601099729537964,
        0.467070996761322
      ],
      "min": [
        -0.19130299985408783,
        -0.19280299544334412,
        -0.5284770131111145
      ],
      "type": "VEC3"
    },
    {
      "bufferView": 2,
      "byteOffset": 2359152,
      "componentType": 5126,
      "count": 65532,
      "max": [
        0.999976634979248,
        0.9999864101409912,
        0.9999932050704956
      ],
      "min": [
        -0.9999762773513794,
        -0.9999974966049194,
        -0.9999767541885376
      ],
      "type": "VEC3"
    },
    {
      "bufferView": 3,
      "byteOffset": 1048512,
      "componentType": 5126,
      "count": 65532,
      "max": [
        0.9999994039535522,
        0.9997274279594421,
        0.9999967813491821,
        1.0
      ],
      "min": [
        -0.9999248385429382,
        -0.9999783039093018,
        -0.9999791979789734,
        -1.0
      ],
      "type": "VEC4"
    },
    {
      "bufferView": 1,
      "byteOffset": 2097024,
      "componentType": 5126,
      "count": 65532,
      "max": [
        0.9996169805526733,
        0.9996169805526733
      ],
      "min": [
        0.00038300000596791506,
        0.00038301944732666016
      ],
      "type": "VEC2"
    },
    {
      "bufferView": 1,
      "byteOffset": 2621280,
      "componentType": 5126,
      "count": 65532,
      "max": [
        0.9996169805526733,
        0.9996169805526733
      ],
      "min": [
        0.00038300000596791506,
        0.00038301944732666016
      ],
      "type": "VEC2"
    },
    {
      "bufferView": 1,
      "byteOffset": 3145536,
      "componentType": 5126,
      "count": 65532,
      "max": [
        0.9996169805526733,
        0.9996169805526733
      ],
      "min": [
        0.00038300000596791506,
        0.00038301944732666016
      ],
      "type": "VEC2"
    },
    {
      "bufferView": 1,
      "byteOffset": 3669792,
      "componentType": 5126,
      "count": 65532,
      "max": [
        0.9996169805526733,
        0.9996169805526733
      ],
      "min": [
        0.00038300000596791506,
        0.00038301944732666016
      ],
      "type": "VEC2"
    },
    {
      "bufferView": 0,
      "byteOffset": 1229424,
      "componentType": 5125,
      "count": 298554,
      "type": "SCALAR"
    },
    {
      "bufferView": 2,
      "byteOffset": 3145536,
      "componentType": 5126,
      "count": 65532,
      "max": [
        0.029488999396562576,
        0.19872400164604187,
        0.5341190099716187
      ],
      "min": [
        -0.18115399777889252,
        -0.23654299974441528,
        -0.23288199305534363
      ],
      "type": "VEC3"
    },
    {
      "bufferView": 2,
      "byteOffset": 3931920,
      "componentType": 5126,
      "count": 65532,
      "max": [
        0.9999686479568481,
        0.9999576807022095,
        1.0
      ],
      "min": [
        -0.9999356865882874,
        -0.999994158744812,
        -0.9999990463256836
      ],
      "type": "VEC3"
    },
    {
      "bufferView": 3,
      "byteOffset": 2097024,
      "componentType": 5126,
      "count": 65532,
      "max": [
        0.9997971653938293,
        0.9999980330467224,
        0.9999985098838806,
        1.0
      ],
      "min": [
        -0.9998277425765991,
        -0.9999891519546509,
        -0.999987006187439,
        -1.0
      ],
      "type": "VEC4"
    },
    {
      "bufferView": 1,
      "byteOffset": 4194048,
      "componentType": 5126,
      "count": 65532,
      "max": [
        0.9996169805526733,
        0.9996169805526733
      ],
      "min": [
        0.00038300000596791506,
        0.00038301944732666016
      ],
      "type": "VEC2"
    },
    {
      "bufferView": 1,
      "byteOffset": 4718304,
      "componentType": 5126,
      "count": 65532,
      "max": [
        0.9996169805526733,
        0.9996169805526733
      ],
      "min": [
        0.00038300000596791506,
        0.00038301944732666016
      ],
      "type": "VEC2"
    },
    {
      "bufferView": 1,
      "byteOffset": 5242560,
      "componentType": 5126,
      "count": 65532,
      "max": [
        0.9996169805526733,
        0.9996169805526733
      ],
      "min": [
        0.00038300000596791506,
        0.00038301944732666016
      ],
      "type": "VEC2"
    },
    {
      "bufferView": 1,
      "byteOffset": 5766816,
      "componentType": 5126,
      "count": 65532,
      "max": [
        0.9996169805526733,
        0.9996169805526733
      ],
      "min": [
        0.00038300000596791506,
        0.00038301944732666016
      ],
      "type": "VEC2"
    },
    {
      "bufferView": 0,
      "byteOffset": 2423640,
      "componentType": 5125,
      "count": 289641,
      "type": "SCALAR"
    },
    {
      "bufferView": 2,
      "byteOffset": 4718304,
      "componentType": 5126,
      "count": 65532,
      "max": [
        0.02075199969112873,
        0.22277599573135376,
        0.5075889825820923
      ],
      "min": [
        -0.1880210041999817,
        -0.23050400614738464,
        -0.236953005194664
      ],
      "type": "VEC3"
    },
    {
      "bufferView": 2,
      "byteOffset": 5504688,
      "componentType": 5126,
      "count": 65532,
      "max": [
        0.999997615814209,
        0.9999463558197021,
        0.9999672174453735
      ],
      "min": [
        -0.9999964237213135,
        -0.9999874830245972,
        -0.9999672174453735
      ],
      "type": "VEC3"
    },
    {
      "bufferView": 3,
      "byteOffset": 3145536,
      "componentType": 5126,
      "count": 65532,
      "max": [
        0.9999998211860657,
        0.9999904036521912,
        0.9999294281005859,
        1.0
      ],
      "min": [
        -0.9999919533729553,
        -0.9999668002128601,
        -0.9999902248382568,
        -1.0
      ],
      "type": "VEC4"
    },
    {
      "bufferView": 1,
      "byteOffset": 6291072,
      "componentType": 5126,
      "count": 65532,
      "max": [
        0.9996169805526733,
        0.9996169805526733
      ],
      "min": [
        0.00038300000596791506,
        0.00038301944732666016
      ],
      "type": "VEC2"
    },
    {
      "bufferView": 1,
      "byteOffset": 6815328,
      "componentType": 5126,
      "count": 65532,
      "max": [
        0.9996169805526733,
        0.9996169805526733
      ],
      "min": [
        0.00038300000596791506,
        0.00038301944732666016
      ],
      "type": "VEC2"
    },
    {
      "bufferView": 1,
      "byteOffset": 7339584,
      "componentType": 5126,
      "count": 65532,
      "max": [
        0.9996169805526733,
        0.9996169805526733
      ],
      "min": [
        0.00038300000596791506,
        0.00038301944732666016
      ],
      "type": "VEC2"
    },
    {
      "bufferView": 1,
      "byteOffset": 7863840,
      "componentType": 5126,
      "count": 65532,
      "max": [
        0.9996169805526733,
        0.9996169805526733
      ],
      "min": [
        0.00038300000596791506,
        0.00038301944732666016
      ],
      "type": "VEC2"
    },
    {
      "bufferView": 0,
      "byteOffset": 3582204,
      "componentType": 5125,
      "count": 294099,
      "type": "SCALAR"
    },
    {
      "bufferView": 2,
      "byteOffset": 6291072,
      "componentType": 5126,
      "count": 65532,
      "max": [
        0.029270000755786896,
        0.23579299449920654,
        0.5342249870300293
      ],
      "min": [
        -0.19067899882793427,
        -0.167820006608963,
        -0.11679299920797348
      ],
      "type": "VEC3"
    },
    {
      "bufferView": 2,
      "byteOffset": 7077456,
      "componentType": 5126,
      "count": 65532,
      "max": [
        0.9999973773956299,
        0.9999210834503174,
        1.0
      ],
      "min": [
        -0.9999465346336365,
        -0.9999995231628418,
        -0.9999983310699463
      ],
      "type": "VEC3"
    },
    {
      "bufferView": 3,
      "byteOffset": 4194048,
      "componentType": 5126,
      "count": 65532,
      "max": [
        0.9999746084213257,
        0.999976396560669,
        0.9999842643737793,
        1.0
      ],
      "min": [
        -0.9999938607215881,
        -0.9999759793281555,
        -0.9999094605445862,
        -1.0
      ],
      "type": "VEC4"
    },
    {
      "bufferView": 1,
      "byteOffset": 8388096,
      "componentType": 5126,
      "count": 65532,
      "max": [
        0.9996169805526733,
        0.9996169805526733
      ],
      "min": [
        0.00038300000596791506,
        0.00038301944732666016
      ],
      "type": "VEC2"
    },
    {
      "bufferView": 1,
      "byteOffset": 8912352,
      "componentType": 5126,
      "count": 65532,
      "max": [
        0.9996169805526733,
        0.9996169805526733
      ],
      "min": [
        0.00038300000596791506,
        0.00038301944732666016
      ],
      "type": "VEC2"
    },
    {
      "bufferView": 1,
      "byteOffset": 9436608,
      "componentType": 5126,
      "count": 65532,
      "max": [
        0.9996169805526733,
        0.9996169805526733
      ],
      "min": [
        0.00038300000596791506,
        0.00038301944732666016
      ],
      "type": "VEC2"
    },
    {
      "bufferView": 1,
      "byteOffset": 9960864,
      "componentType": 5126,
      "count": 65532,
      "max": [
        0.9996169805526733,
        0.9996169805526733
      ],
      "min": [
        0.00038300000596791506,
        0.00038301944732666016
      ],
      "type": "VEC2"
    },
    {
      "bufferView": 0,
      "byteOffset": 4758600,
      "componentType": 5125,
      "count": 293427,
      "type": "SCALAR"
    },
    {
      "bufferView": 2,
      "byteOffset": 7863840,
      "componentType": 5126,
      "count": 4225,
      "max": [
        -0.030285999178886414,
        0.15388800203800201,
        0.2663959860801697
      ],
      "min": [
        -0.17746999859809875,
        -0.14818799495697021,
        -0.10835500061511993
      ],
      "type": "VEC3"
    },
    {
      "bufferView": 2,
      "byteOffset": 7914540,
      "componentType": 5126,
      "count": 4225,
      "max": [
        0.9999240636825562,
        0.9996522068977356,
        0.9999865293502808
      ],
      "min": [
        -0.9962577223777771,
        -0.9989578723907471,
        -0.9993726015090942
      ],
      "type": "VEC3"
    },
    {
      "bufferView": 3,
      "byteOffset": 5242560,
      "componentType": 5126,
      "count": 4225,
      "max": [
        0.9997664093971252,
        0.9979390501976013,
        0.9999971389770508,
        1.0
      ],
      "min": [
        -0.9994727969169617,
        -0.9998502731323242,
        -0.9998733997344971,
        -1.0
      ],
      "type": "VEC4"
    },
    {
      "bufferView": 1,
      "byteOffset": 10485120,
      "componentType": 5126,
      "count": 4225,
      "max": [
        0.9973180294036865,
        0.9996169805526733
      ],
      "min": [
        0.002681999932974577,
        0.00038301944732666016
      ],
      "type": "VEC2"
    },
    {
      "bufferView": 1,
      "byteOffset": 10518920,
      "componentType": 5126,
      "count": 4225,
      "max": [
        0.9973180294036865,
        0.9996169805526733
      ],
      "min": [
        0.002681999932974577,
        0.00038301944732666016
      ],
      "type": "VEC2"
    },
    {
      "bufferView": 1,
      "byteOffset": 10552720,
      "componentType": 5126,
      "count": 4225,
      "max": [
        0.9973180294036865,
        0.9996169805526733
      ],
      "min": [
        0.002681999932974577,
        0.00038301944732666016
      ],
      "type": "VEC2"
    },
    {
      "bufferView": 1,
      "byteOffset": 10586520,
      "componentType": 5126,
      "count": 4225,
      "max": [
        0.9973180294036865,
        0.9996169805526733
      ],
      "min": [
        0.002681999932974577,
        0.00038301944732666016
      ],
      "type": "VEC2"
    },
    {
      "bufferView": 0,
      "byteOffset": 5932308,
      "componentType": 5125,
      "count": 16122,
      "type": "SCALAR"
    }
  ],
  "asset": {
    "extras": {
      "author": "𝖟𝖙𝖗𝖟𝖙𝖗 (https://sketchfab.com/ztrztr3)",
      "license": "CC-BY-4.0 (http://creativecommons.org/licenses/by/4.0/)",
      "source": "https://sketchfab.com/3d-models/f9f88c1b16d7f64852837c80c6607546-2b755445e822467fa964fe2ab8139579",
      "title": "F9f88c1b16d7f64852837c80c6607546"
    },
    "generator": "Sketchfab-16.68.0",
    "version": "2.0"
  },
  "bufferViews": [
    {
      "buffer": 0,
      "byteLength": 5996796,
      "name": "floatBufferViews",
      "target": 34963
    },
    {
      "buffer": 0,
      "byteLength": 10620320,
      "byteOffset": 5996796,
      "byteStride": 8,
      "name": "floatBufferViews",
      "target": 34962
    },
    {
      "buffer": 0,
      "byteLength": 7965240,
      "byteOffset": 16617116,
      "byteStride": 12,
      "name": "floatBufferViews",
      "target": 34962
    },
    {
      "buffer": 0,
      "byteLength": 5310160,
      "byteOffset": 24582356,
      "byteStride": 16,
      "name": "floatBufferViews",
      "target": 34962
    }
  ],
  "buffers": [
    {
      "byteLength": 29892516,
      "uri": "scene.bin"
    }
  ],
  "extensionsUsed": [
    "KHR_materials_specular"
  ],
  "images": [
    {
      "uri": "textures/Material.001_baseColor.png"
    },
    {
      "uri": "textures/Material.001_metallicRoughness.png"
    },
    {
      "uri": "textures/Material.001_normal.png"
    }
  ],
  "materials": [
    {
      "doubleSided": true,
      "extensions": {
        "KHR_materials_specular": {
          "specularColorFactor": [
            1.0,
            1.0,
            1.0
          ],
          "specularFactor": 1.0
        }
      },
      "name": "Material.001",
      "normalTexture": {
        "index": 2,
        "texCoord": 2
      },
      "pbrMetallicRoughness": {
        "baseColorTexture": {
          "index": 0
        },
        "metallicRoughnessTexture": {
          "index": 1,
          "texCoord": 1
        }
      }
    }
  ],
  "meshes": [
    {
      "name": "Object_0",
      "primitives": [
        {
          "attributes": {
            "NORMAL": 1,
            "POSITION": 0,
            "TANGENT": 2,
            "TEXCOORD_0": 3,
            "TEXCOORD_1": 4,
            "TEXCOORD_2": 5,
            "TEXCOORD_3": 6
          },
          "indices": 7,
          "material": 0,
          "mode": 4
        }
      ]
    },
    {
      "name": "Object_1",
      "primitives": [
        {
          "attributes": {
            "NORMAL": 9,
            "POSITION": 8,
            "TANGENT": 10,
            "TEXCOORD_0": 11,
            "TEXCOORD_1": 12,
            "TEXCOORD_2": 13,
            "TEXCOORD_3": 14
          },
          "indices": 15,
          "material": 0,
          "mode": 4
        }
      ]
    },
    {
      "name": "Object_2",
      "primitives": [
        {
          "attributes": {
            "NORMAL": 17,
            "POSITION": 16,
            "TANGENT": 18,
            "TEXCOORD_0": 19,
            "TEXCOORD_1": 20,
            "TEXCOORD_2": 21,
            "TEXCOORD_3": 22
          },
          "indices": 23,
          "material": 0,
          "mode": 4
        }
      ]
    },
    {
      "name": "Object_3",
      "primitives": [
        {
          "attributes": {
            "NORMAL": 25,
            "POSITION": 24,
            "TANGENT": 26,
            "TEXCOORD_0": 27,
            "TEXCOORD_1": 28,
            "TEXCOORD_2": 29,
            "TEXCOORD_3": 30
          },
          "indices": 31,
          "material": 0,
          "mode": 4
        }
      ]
    },
    {
      "name": "Object_4",
      "primitives": [
        {
          "attributes": {
            "NORMAL": 33,
            "POSITION": 32,
            "TANGENT": 34,
            "TEXCOORD_0": 35,
            "TEXCOORD_1": 36,
            "TEXCOORD_2": 37,
            "TEXCOORD_3": 38
          },
          "indices": 39,
          "material": 0,
          "mode": 4
        }
      ]
    },
    {
      "name": "Object_5",
      "primitives": [
        {
          "attributes": {
            "NORMAL": 41,
            "POSITION": 40,
            "TANGENT": 42,
            "TEXCOORD_0": 43,
            "TEXCOORD_1": 44,
            "TEXCOORD_2": 45,
            "TEXCOORD_3": 46
          },
          "indices": 47,
          "material": 0,
          "mode": 4
        }
      ]
    }
  ],
  "nodes": [
    {
      "children": [
        1
      ],
      "matrix": [
        1.0,
        0.0,
        0.0,
        0.0,
        0.0,
        2.220446049250313e-16,
        -1.0,
        0.0,
        0.0,
        1.0,
        2.220446049250313e-16,
        0.0,
        0.0,
        0.0,
        0.0,
        1.0
      ],
      "name": "Sketchfab_model"
    },
    {
      "children": [
        2
      ],
      "name": "root"
    },
    {
      "children": [
        3
      ],
      "matrix": [
        1.0,
        0.0,
        0.0,
        0.0,
        0.0,
        2.220446049250313e-16,
        1.0,
        0.0,
        0.0,
        -1.0,
        2.220446049250313e-16,
        0.0,
        0.0,
        0.0,
        0.0,
        1.0
      ],
      "name": "GLTF_SceneRootNode"
    },
    {
      "children": [
        4,
        5,
        6,
        7,
        8,
        9
      ],
      "matrix": [
        1.0,
        0.0,
        0.0,
        0.0,
        0.0,
        0.0,
        1.0,
        0.0,
        0.0,
        -1.0,
        0.0,
        0.0,
        0.0,
        0.0,
        0.0,
        1.0
      ],
      "name": "texture_pbr_v128_0"
    },
    {
      "mesh": 0,
      "name": "Object_4"
    },
    {
      "mesh": 1,
      "name": "Object_5"
    },
    {
      "mesh": 2,
      "name": "Object_6"
    },
    {
      "mesh": 3,
      "name": "Object_7"
    },
    {
      "mesh": 4,
      "name": "Object_8"
    },
    {
      "mesh": 5,
      "name": "Object_9"
    }
  ],
  "samplers": [
    {
      "magFilter": 9729,
      "minFilter": 9987,
      "wrapS": 10497,
      "wrapT": 10497
    }
  ],
  "scene": 0,
  "scenes": [
    {
      "name": "Sketchfab_Scene",
      "nodes": [
        0
      ]
    }
  ],
  "textures": [
    {
      "sampler": 0,
      "source": 0
    },
    {
      "sampler": 0,
      "source": 1
    },
    {
      "sampler": 0,
      "source": 2
    }
  ]
}
