{
  "accessors": [
    {
      "bufferView": 2,
      "componentType": 5126,
      "count": 10566,
      "max": [
        2.085400342941284,
        0.04236340895295143,
        1.364638090133667
      ],
      "min": [
        -2.4543843269348145,
        -1.6682968139648438,
        -1.364638090133667
      ],
      "type": "VEC3"
    },
    {
      "bufferView": 2,
      "byteOffset": 126792,
      "componentType": 5126,
      "count": 10566,
      "max": [
        0.9999977350234985,
        0.9996531009674072,
        1.0
      ],
      "min": [
        -0.9991759061813354,
        -0.9999911785125732,
        -1.0
      ],
      "type": "VEC3"
    },
    {
      "bufferView": 1,
      "componentType": 5126,
      "count": 10566,
      "max": [
        0.0,
        0.0
      ],
      "min": [
        0.0,
        0.0
      ],
      "type": "VEC2"
    },
    {
      "bufferView": 0,
      "componentType": 5125,
      "count": 62496,
      "type": "SCALAR"
    },
    {
      "bufferView": 2,
      "byteOffset": 253584,
      "componentType": 5126,
      "count": 4801,
      "max": [
        1.0358102321624756,
        0.4757881462574005,
        1.0358102321624756
      ],
      "min": [
        -1.0358099937438965,
        -0.031976524740457535,
        -1.0358102321624756
      ],
      "type": "VEC3"
    },
    {
      "bufferView": 2,
      "byteOffset": 311196,
      "componentType": 5126,
      "count": 4801,
      "max": [
        1.0,
        1.0,
        1.0
      ],
      "min": [
        -1.0,
        -0.6471370458602905,
        -1.0
      ],
      "type": "VEC3"
    },
    {
      "bufferView": 1,
      "byteOffset": 84528,
      "componentType": 5126,
      "count": 4801,
      "max": [
        0.0,
        0.0
      ],
      "min": [
        0.0,
        0.0
      ],
      "type": "VEC2"
    },
    {
      "bufferView": 0,
      "byteOffset": 249984,
      "componentType": 5125,
      "count": 28416,
      "type": "SCALAR"
    }
  ],
  "asset": {
    "extras": {
      "author": "Astraeus (https://sketchfab.com/FinnSoft)",
      "license": "CC-BY-4.0 (http://creativecommons.org/licenses/by/4.0/)",
      "source": "https://sketchfab.com/3d-models/teapot-utah-08b7c8a857c3400c8c834a956fe646c1",
      "title": "Teapot (Utah)"
    },
    "generator": "Sketchfab-12.68.0",
    "version": "2.0"
  },
  "bufferViews": [
    {
      "buffer": 0,
      "byteLength": 363648,
      "name": "floatBufferViews",
      "target": 34963
    },
    {
      "buffer": 0,
      "byteLength": 122936,
      "byteOffset": 363648,
      "byteStride": 8,
      "name": "floatBufferViews",
      "target": 34962
    },
    {
      "buffer": 0,
      "byteLength": 368808,
      "byteOffset": 486584,
      "byteStride": 12,
      "name": "floatBufferViews",
      "target": 34962
    }
  ],
  "buffers": [
    {
      "byteLength": 855392,
      "uri": "scene.bin"
    }
  ],
  "materials": [
    {
      "doubleSided": true,
      "name": "Material.001",
      "pbrMetallicRoughness": {
        "roughnessFactor": 0.240909
      }
    },
    {
      "doubleSided": true,
      "name": "Material.002",
      "pbrMetallicRoughness": {
        "baseColorFactor": [
          0.8,
          0.505416,
          0.518356,
          1.0
        ],
        "roughnessFactor": 0.17727299999999999
      }
    }
  ],
  "meshes": [
    {
      "name": "Object_0",
      "primitives": [
        {
          "attributes": {
            "NORMAL": 1,
            "POSITION": 0,
            "TEXCOORD_0": 2
          },
          "indices": 3,
          "material": 0,
          "mode": 4
        }
      ]
    },
    {
      "name": "Object_1",
      "primitives": [
        {
          "attributes": {
            "NORMAL": 5,
            "POSITION": 4,
            "TEXCOORD_0": 6
          },
          "indices": 7,
          "material": 1,
          "mode": 4
        }
      ]
    }
  ],
  "nodes": [
    {
      "children": [
        1
      ],
      "matrix": [
        1.0,
        0.0,
        0.0,
        0.0,
        0.0,
        2.220446049250313e-16,
        -1.0,
        0.0,
        0.0,
        1.0,
        2.220446049250313e-16,
        0.0,
        0.0,
        0.0,
        0.0,
        1.0
      ],
      "name": "Sketchfab_model"
    },
    {
      "children": [
        2
      ],
      "name": "root"
    },
    {
      "children": [
        3,
        5
      ],
      "matrix": [
        1.0,
        0.0,
        0.0,
        0.0,
        0.0,
        2.220446049250313e-16,
        1.0,
        0.0,
        0.0,
        -1.0,
        2.220446049250313e-16,
        0.0,
        0.0,
        0.0,
        0.0,
        1.0
      ],
      "name": "GLTF_SceneRootNode"
    },
    {
      "children": [
        4
      ],
      "matrix": [
        2.4237289428710938,
        0.0,
        0.0,
        0.0,
        0.0,
        2.4237289428710938,
        0.0,
        0.0,
        0.0,
        0.0,
        2.4237289428710938,
        0.0,
        0.11370468139648438,
        3.6738357543945313,
        -0.3234596252441406,
        1.0
      ],
      "name": "Circle_2"
    },
    {
      "mesh": 0,
      "name": "Object_4"
    },
    {
      "children": [
        6
      ],
      "matrix": [
        2.3627400398254395,
        0.0,
        0.0,
        0.0,
        0.0,
        2.3627400398254395,
        0.0,
        0.0,
        0.0,
        0.0,
        2.3627400398254395,
        0.0,
        0.12518882751464844,
        3.758761405944824,
        -0.3234596252441406,
        1.0
      ],
      "name": "Circle.001_3"
    },
    {
      "mesh": 1,
      "name": "Object_6"
    }
  ],
  "scene": 0,
  "scenes": [
    {
      "name": "Sketchfab_Scene",
      "nodes": [
        0
      ]
    }
  ]
}
