{
  "accessors": [
    {
      "bufferView": 2,
      "componentType": 5126,
      "count": 15536,
      "max": [
        -4.225390911102295,
        -0.5505071878433228,
        3.2343761920928955
      ],
      "min": [
        -7.182059288024902,
        -3.645744562149048,
        -0.14742712676525116
      ],
      "type": "VEC3"
    },
    {
      "bufferView": 2,
      "byteOffset": 186432,
      "componentType": 5126,
      "count": 15536,
      "max": [
        0.999978244304657,
        0.9999256730079651,
        0.9994032979011536
      ],
      "min": [
        -0.9997518658638,
        -0.9998037219047546,
        -0.9999672770500183
      ],
      "type": "VEC3"
    },
    {
      "bufferView": 1,
      "componentType": 5126,
      "count": 15536,
      "max": [
        0.9980469346046448,
        0.9400821328163147
      ],
      "min": [
        0.001953128492459655,
        0.001953128492459655
      ],
      "type": "VEC2"
    },
    {
      "bufferView": 1,
      "byteOffset": 124288,
      "componentType": 5126,
      "count": 15536,
      "max": [
        0.9980469346046448,
        0.9400821328163147
      ],
      "min": [
        0.001953128492459655,
        0.001953128492459655
      ],
      "type": "VEC2"
    },
    {
      "bufferView": 0,
      "componentType": 5125,
      "count": 92592,
      "type": "SCALAR"
    }
  ],
  "asset": {
    "extras": {
      "author": "Nikitos & 3130 (https://sketchfab.com/vrcityphoto)",
      "license": "CC-BY-4.0 (http://creativecommons.org/licenses/by/4.0/)",
      "source": "https://sketchfab.com/3d-models/max-tank-driver-5bb9a6dcba904da0afa6f5d58b8945a2",
      "title": "MAX tank driver / Макс танкист"
    },
    "generator": "Sketchfab-12.68.0",
    "version": "2.0"
  },
  "bufferViews": [
    {
      "buffer": 0,
      "byteLength": 370368,
      "name": "floatBufferViews",
      "target": 34963
    },
    {
      "buffer": 0,
      "byteLength": 248576,
      "byteOffset": 370368,
      "byteStride": 8,
      "name": "floatBufferViews",
      "target": 34962
    },
    {
      "buffer": 0,
      "byteLength": 372864,
      "byteOffset": 618944,
      "byteStride": 12,
      "name": "floatBufferViews",
      "target": 34962
    }
  ],
  "buffers": [
    {
      "byteLength": 991808,
      "uri": "scene.bin"
    }
  ],
  "extensionsUsed": [
    "KHR_materials_unlit"
  ],
  "images": [
    {
      "uri": "textures/maxxx2_2_baseColor.jpeg"
    }
  ],
  "materials": [
    {
      "doubleSided": true,
      "extensions": {
        "KHR_materials_unlit": {}
      },
      "name": "maxxx2_2",
      "pbrMetallicRoughness": {
        "baseColorTexture": {
          "index": 0
        },
        "metallicFactor": 0.0
      }
    }
  ],
  "meshes": [
    {
      "name": "maxxx2_2_maxxx2_2_0",
      "primitives": [
        {
          "attributes": {
            "NORMAL": 1,
            "POSITION": 0,
            "TEXCOORD_0": 2,
            "TEXCOORD_1": 3
          },
          "indices": 4,
          "material": 0,
          "mode": 4
        }
      ]
    }
  ],
  "nodes": [
    {
      "children": [
        1
      ],
      "matrix": [
        0.697465717792511,
        0.07161699980497345,
        0.7130305767059326,
        0.0,
        -0.48904749751091003,
        0.7748520374298095,
        0.40054565668106096,
        0.0,
        -0.5238072872161865,
        -0.6280726790428163,
        0.5754568576812743,
        0.0,
        -3.020437717437744,
        -1.6490054130554217,
        7.8001627922058105,
        1.0
      ],
      "name": "Sketchfab_model"
    },
    {
      "children": [
        2
      ],
      "matrix": [
        1.0,
        0.0,
        0.0,
        0.0,
        0.0,
        0.0,
        1.0,
        0.0,
        0.0,
        -1.0,
        0.0,
        0.0,
        0.0,
        0.0,
        0.0,
        1.0
      ],
      "name": "648dea72a05d4a42b5ab379e5847128c.fbx"
    },
    {
      "children": [
        3
      ],
      "name": "RootNode"
    },
    {
      "children": [
        4
      ],
      "name": "maxxx2_2"
    },
    {
      "mesh": 0,
      "name": "maxxx2_2_maxxx2_2_0"
    }
  ],
  "samplers": [
    {
      "magFilter": 9729,
      "minFilter": 9987,
      "wrapS": 10497,
      "wrapT": 10497
    }
  ],
  "scene": 0,
  "scenes": [
    {
      "name": "Sketchfab_Scene",
      "nodes": [
        0
      ]
    }
  ],
  "textures": [
    {
      "sampler": 0,
      "source": 0
    }
  ]
}
