{
  "accessors": [
    {
      "bufferView": 2,
      "componentType": 5126,
      "count": 65532,
      "max": [
        0.41690900921821594,
        0.9517999887466431,
        0.30585798621177673
      ],
      "min": [
        -0.4352700114250183,
        -0.9519860148429871,
        -0.3154430091381073
      ],
      "type": "VEC3"
    },
    {
      "bufferView": 2,
      "byteOffset": 786384,
      "componentType": 5126,
      "count": 65532,
      "max": [
        0.9999969005584717,
        0.9999946355819702,
        0.9999934434890747
      ],
      "min": [
        -0.9999619126319885,
        -0.9999998807907104,
        -0.9999515414237976
      ],
      "type": "VEC3"
    },
    {
      "bufferView": 1,
      "componentType": 5126,
      "count": 65532,
      "max": [
        0.9979220032691956,
        0.9974759817123413
      ],
      "min": [
        0.004662000108510256,
        0.0012199878692626953
      ],
      "type": "VEC2"
    },
    {
      "bufferView": 0,
      "componentType": 5125,
      "count": 340704,
      "type": "SCALAR"
    },
    {
      "bufferView": 2,
      "byteOffset": 1572768,
      "componentType": 5126,
      "count": 65532,
      "max": [
        0.46030300855636597,
        0.9470909833908081,
        0.2713640034198761
      ],
      "min": [
        -0.4336859881877899,
        -0.9497110247612,
        -0.31358999013900757
      ],
      "type": "VEC3"
    },
    {
      "bufferView": 2,
      "byteOffset": 2359152,
      "componentType": 5126,
      "count": 65532,
      "max": [
        0.9999021291732788,
        0.9999606609344482,
        0.9999971389770508
      ],
      "min": [
        -0.9999943971633911,
        -0.9999996423721313,
        -0.9999973773956299
      ],
      "type": "VEC3"
    },
    {
      "bufferView": 1,
      "byteOffset": 524256,
      "componentType": 5126,
      "count": 65532,
      "max": [
        0.9983469843864441,
        0.9965519905090332
      ],
      "min": [
        0.002053000032901764,
        0.0005879998207092285
      ],
      "type": "VEC2"
    },
    {
      "bufferView": 0,
      "byteOffset": 1362816,
      "componentType": 5125,
      "count": 343800,
      "type": "SCALAR"
    },
    {
      "bufferView": 2,
      "byteOffset": 3145536,
      "componentType": 5126,
      "count": 65532,
      "max": [
        0.4346579909324646,
        0.9307349920272827,
        0.2801400125026703
      ],
      "min": [
        -0.4480830132961273,
        -0.9514740109443665,
        -0.274958997964859
      ],
      "type": "VEC3"
    },
    {
      "bufferView": 2,
      "byteOffset": 3931920,
      "componentType": 5126,
      "count": 65532,
      "max": [
        0.9999873638153076,
        0.9998481869697571,
        0.9999935626983643
      ],
      "min": [
        -0.999950647354126,
        -0.9999997615814209,
        -0.9999366998672485
      ],
      "type": "VEC3"
    },
    {
      "bufferView": 1,
      "byteOffset": 1048512,
      "componentType": 5126,
      "count": 65532,
      "max": [
        0.9992489814758301,
        0.9988420009613037
      ],
      "min": [
        0.004377999808639288,
        0.0007410049438476563
      ],
      "type": "VEC2"
    },
    {
      "bufferView": 0,
      "byteOffset": 2738016,
      "componentType": 5125,
      "count": 342945,
      "type": "SCALAR"
    },
    {
      "bufferView": 2,
      "byteOffset": 4718304,
      "componentType": 5126,
      "count": 65532,
      "max": [
        0.42498499155044556,
        0.8503130078315735,
        0.3166379928588867
      ],
      "min": [
        -0.4209659993648529,
        -0.9516729712486267,
        -0.29826799035072327
      ],
      "type": "VEC3"
    },
    {
      "bufferView": 2,
      "byteOffset": 5504688,
      "componentType": 5126,
      "count": 65532,
      "max": [
        0.9999923706054688,
        0.9999644756317139,
        0.9999858736991882
      ],
      "min": [
        -0.9999594688415527,
        -0.999997615814209,
        -0.9999806880950928
      ],
      "type": "VEC3"
    },
    {
      "bufferView": 1,
      "byteOffset": 1572768,
      "componentType": 5126,
      "count": 65532,
      "max": [
        0.997281014919281,
        0.99993497133255
      ],
      "min": [
        0.0017010000301524997,
        0.0005840063095092773
      ],
      "type": "VEC2"
    },
    {
      "bufferView": 0,
      "byteOffset": 4109796,
      "componentType": 5125,
      "count": 338799,
      "type": "SCALAR"
    },
    {
      "bufferView": 2,
      "byteOffset": 6291072,
      "componentType": 5126,
      "count": 65532,
      "max": [
        0.4308429956436157,
        0.950219988822937,
        0.3148680031299591
      ],
      "min": [
        -0.4305019974708557,
        -0.9519609808921814,
        -0.312593013048172
      ],
      "type": "VEC3"
    },
    {
      "bufferView": 2,
      "byteOffset": 7077456,
      "componentType": 5126,
      "count": 65532,
      "max": [
        0.9999934434890747,
        0.9999523758888245,
        0.9999971389770508
      ],
      "min": [
        -0.999988317489624,
        -0.9999982118606567,
        -0.9999661445617676
      ],
      "type": "VEC3"
    },
    {
      "bufferView": 1,
      "byteOffset": 2097024,
      "componentType": 5126,
      "count": 65532,
      "max": [
        0.9994300007820129,
        0.9988279938697815
      ],
      "min": [
        0.0016329999780282378,
        0.00010097026824951172
      ],
      "type": "VEC2"
    },
    {
      "bufferView": 0,
      "byteOffset": 5464992,
      "componentType": 5125,
      "count": 317736,
      "type": "SCALAR"
    },
    {
      "bufferView": 2,
      "byteOffset": 7863840,
      "componentType": 5126,
      "count": 65532,
      "max": [
        0.43647700548171997,
        0.9518070220947266,
        0.2046789973974228
      ],
      "min": [
        -0.44635701179504395,
        -0.951882004737854,
        -0.2266400009393692
      ],
      "type": "VEC3"
    },
    {
      "bufferView": 2,
      "byteOffset": 8650224,
      "componentType": 5126,
      "count": 65532,
      "max": [
        0.9999374151229858,
        0.9997034668922424,
        0.9999935626983643
      ],
      "min": [
        -0.9999982118606567,
        -0.9999997615814209,
        -0.9999998807907104
      ],
      "type": "VEC3"
    },
    {
      "bufferView": 1,
      "byteOffset": 2621280,
      "componentType": 5126,
      "count": 65532,
      "max": [
        0.9992120265960693,
        0.9999859929084778
      ],
      "min": [
        7.000000096013537e-06,
        1.800060272216797e-05
      ],
      "type": "VEC2"
    },
    {
      "bufferView": 0,
      "byteOffset": 6735936,
      "componentType": 5125,
      "count": 291906,
      "type": "SCALAR"
    },
    {
      "bufferView": 2,
      "byteOffset": 9436608,
      "componentType": 5126,
      "count": 62099,
      "max": [
        0.46030300855636597,
        0.9514960050582886,
        0.13976499438285828
      ],
      "min": [
        -0.44408801198005676,
        -0.9517980217933655,
        -0.315326988697052
      ],
      "type": "VEC3"
    },
    {
      "bufferView": 2,
      "byteOffset": 10181796,
      "componentType": 5126,
      "count": 62099,
      "max": [
        0.9998767375946045,
        0.9997507333755493,
        0.9999964237213135
      ],
      "min": [
        -0.9999570846557617,
        -0.9999998807907104,
        -0.9999934434890747
      ],
      "type": "VEC3"
    },
    {
      "bufferView": 1,
      "byteOffset": 3145536,
      "componentType": 5126,
      "count": 62099,
      "max": [
        0.9994540214538574,
        0.999879002571106
      ],
      "min": [
        0.0005150000215508044,
        2.9027462005615234e-05
      ],
      "type": "VEC2"
    },
    {
      "bufferView": 0,
      "byteOffset": 7903560,
      "componentType": 5125,
      "count": 246030,
      "type": "SCALAR"
    }
  ],
  "asset": {
    "extras": {
      "author": "max.przy06 (https://sketchfab.com/max.przy06)",
      "license": "CC-BY-4.0 (http://creativecommons.org/licenses/by/4.0/)",
      "source": "https://sketchfab.com/3d-models/elfe-character-steampunk-world-of-warcraft-a4d8bd2485c246ba9616a34d7d958f9d",
      "title": "elfe character steampunk world of warcraft"
    },
    "generator": "Sketchfab-16.75.0",
    "version": "2.0"
  },
  "bufferViews": [
    {
      "buffer": 0,
      "byteLength": 8887680,
      "name": "floatBufferViews",
      "target": 34963
    },
    {
      "buffer": 0,
      "byteLength": 3642328,
      "byteOffset": 8887680,
      "byteStride": 8,
      "name": "floatBufferViews",
      "target": 34962
    },
    {
      "buffer": 0,
      "byteLength": 10926984,
      "byteOffset": 12530008,
      "byteStride": 12,
      "name": "floatBufferViews",
      "target": 34962
    }
  ],
  "buffers": [
    {
      "byteLength": 23456992,
      "uri": "scene.bin"
    }
  ],
  "images": [
    {
      "uri": "textures/material_0_baseColor.jpeg"
    }
  ],
  "materials": [
    {
      "doubleSided": true,
      "name": "material_0",
      "pbrMetallicRoughness": {
        "baseColorTexture": {
          "index": 0
        },
        "metallicFactor": 0.0,
        "roughnessFactor": 0.8
      }
    }
  ],
  "meshes": [
    {
      "name": "Object_0",
      "primitives": [
        {
          "attributes": {
            "NORMAL": 1,
            "POSITION": 0,
            "TEXCOORD_0": 2
          },
          "indices": 3,
          "material": 0,
          "mode": 4
        }
      ]
    },
    {
      "name": "Object_1",
      "primitives": [
        {
          "attributes": {
            "NORMAL": 5,
            "POSITION": 4,
            "TEXCOORD_0": 6
          },
          "indices": 7,
          "material": 0,
          "mode": 4
        }
      ]
    },
    {
      "name": "Object_2",
      "primitives": [
        {
          "attributes": {
            "NORMAL": 9,
            "POSITION": 8,
            "TEXCOORD_0": 10
          },
          "indices": 11,
          "material": 0,
          "mode": 4
        }
      ]
    },
    {
      "name": "Object_3",
      "primitives": [
        {
          "attributes": {
            "NORMAL": 13,
            "POSITION": 12,
            "TEXCOORD_0": 14
          },
          "indices": 15,
          "material": 0,
          "mode": 4
        }
      ]
    },
    {
      "name": "Object_4",
      "primitives": [
        {
          "attributes": {
            "NORMAL": 17,
            "POSITION": 16,
            "TEXCOORD_0": 18
          },
          "indices": 19,
          "material": 0,
          "mode": 4
        }
      ]
    },
    {
      "name": "Object_5",
      "primitives": [
        {
          "attributes": {
            "NORMAL": 21,
            "POSITION": 20,
            "TEXCOORD_0": 22
          },
          "indices": 23,
          "material": 0,
          "mode": 4
        }
      ]
    },
    {
      "name": "Object_6",
      "primitives": [
        {
          "attributes": {
            "NORMAL": 25,
            "POSITION": 24,
            "TEXCOORD_0": 26
          },
          "indices": 27,
          "material": 0,
          "mode": 4
        }
      ]
    }
  ],
  "nodes": [
    {
      "children": [
        1
      ],
      "matrix": [
        1.0,
        0.0,
        0.0,
        0.0,
        0.0,
        2.220446049250313e-16,
        -1.0,
        0.0,
        0.0,
        1.0,
        2.220446049250313e-16,
        0.0,
        0.0,
        0.0,
        0.0,
        1.0
      ],
      "name": "Sketchfab_model"
    },
    {
      "children": [
        2
      ],
      "name": "root"
    },
    {
      "children": [
        3
      ],
      "matrix": [
        1.0,
        0.0,
        0.0,
        0.0,
        0.0,
        2.220446049250313e-16,
        1.0,
        0.0,
        0.0,
        -1.0,
        2.220446049250313e-16,
        0.0,
        0.0,
        0.0,
        0.0,
        1.0
      ],
      "name": "GLTF_SceneRootNode"
    },
    {
      "children": [
        4,
        5,
        6,
        7,
        8,
        9,
        10
      ],
      "name": "_0"
    },
    {
      "mesh": 0,
      "name": "Object_4"
    },
    {
      "mesh": 1,
      "name": "Object_5"
    },
    {
      "mesh": 2,
      "name": "Object_6"
    },
    {
      "mesh": 3,
      "name": "Object_7"
    },
    {
      "mesh": 4,
      "name": "Object_8"
    },
    {
      "mesh": 5,
      "name": "Object_9"
    },
    {
      "mesh": 6,
      "name": "Object_10"
    }
  ],
  "samplers": [
    {
      "magFilter": 9729,
      "minFilter": 9987,
      "wrapS": 10497,
      "wrapT": 10497
    }
  ],
  "scene": 0,
  "scenes": [
    {
      "name": "Sketchfab_Scene",
      "nodes": [
        0
      ]
    }
  ],
  "textures": [
    {
      "sampler": 0,
      "source": 0
    }
  ]
}
