{
  "accessors": [
    {
      "bufferView": 2,
      "componentType": 5126,
      "count": 57054,
      "max": [
        47.652591705322266,
        11.70758056640625,
        70.02848815917969
      ],
      "min": [
        -21.057172775268555,
        -177.5537872314453,
        -80.75390625
      ],
      "type": "VEC3"
    },
    {
      "bufferView": 2,
      "byteOffset": 684648,
      "componentType": 5126,
      "count": 57054,
      "max": [
        0.9999943375587463,
        0.9999988675117493,
        1.0
      ],
      "min": [
        -0.9999944567680359,
        -0.9998857378959656,
        -1.0
      ],
      "type": "VEC3"
    },
    {
      "bufferView": 3,
      "componentType": 5126,
      "count": 57054,
      "max": [
        0.9998185038566589,
        0.9999984502792358,
        1.0,
        1.0
      ],
      "min": [
        -0.9994367957115173,
        -0.9999995231628418,
        -1.0,
        1.0
      ],
      "type": "VEC4"
    },
    {
      "bufferView": 1,
      "componentType": 5126,
      "count": 57054,
      "max": [
        0.999500036239624,
        0.9956517219543457
      ],
      "min": [
        0.004599148873239756,
        0.009163886308670044
      ],
      "type": "VEC2"
    },
    {
      "bufferView": 0,
      "componentType": 5125,
      "count": 297408,
      "type": "SCALAR"
    }
  ],
  "asset": {
    "extras": {
      "author": "esdalex115 (https://sketchfab.com/esdalex115)",
      "license": "CC-BY-4.0 (http://creativecommons.org/licenses/by/4.0/)",
      "source": "https://sketchfab.com/3d-models/machete-of-firefly-the-last-of-us-41e42d25bb524fbba96c55e2447599a0",
      "title": "Machete of firefly (The last of us)"
    },
    "generator": "Sketchfab-12.67.0",
    "version": "2.0"
  },
  "bufferViews": [
    {
      "buffer": 0,
      "byteLength": 1189632,
      "name": "floatBufferViews",
      "target": 34963
    },
    {
      "buffer": 0,
      "byteLength": 456432,
      "byteOffset": 1189632,
      "byteStride": 8,
      "name": "floatBufferViews",
      "target": 34962
    },
    {
      "buffer": 0,
      "byteLength": 1369296,
      "byteOffset": 1646064,
      "byteStride": 12,
      "name": "floatBufferViews",
      "target": 34962
    },
    {
      "buffer": 0,
      "byteLength": 912864,
      "byteOffset": 3015360,
      "byteStride": 16,
      "name": "floatBufferViews",
      "target": 34962
    }
  ],
  "buffers": [
    {
      "byteLength": 3928224,
      "uri": "scene.bin"
    }
  ],
  "images": [
    {
      "uri": "textures/Scene_-_Root_baseColor.jpeg"
    },
    {
      "uri": "textures/Scene_-_Root_metallicRoughness.png"
    },
    {
      "uri": "textures/Scene_-_Root_normal.png"
    }
  ],
  "materials": [
    {
      "doubleSided": true,
      "name": "Scene_-_Root",
      "normalTexture": {
        "index": 2
      },
      "occlusionTexture": {
        "index": 1
      },
      "pbrMetallicRoughness": {
        "baseColorTexture": {
          "index": 0
        },
        "metallicRoughnessTexture": {
          "index": 1
        }
      }
    }
  ],
  "meshes": [
    {
      "name": "machete__0",
      "primitives": [
        {
          "attributes": {
            "NORMAL": 1,
            "POSITION": 0,
            "TANGENT": 2,
            "TEXCOORD_0": 3
          },
          "indices": 4,
          "material": 0,
          "mode": 4
        }
      ]
    }
  ],
  "nodes": [
    {
      "children": [
        1
      ],
      "matrix": [
        1.0,
        0.0,
        0.0,
        0.0,
        0.0,
        2.220446049250313e-16,
        -1.0,
        0.0,
        0.0,
        1.0,
        2.220446049250313e-16,
        0.0,
        0.0,
        0.0,
        0.0,
        1.0
      ],
      "name": "Sketchfab_model"
    },
    {
      "children": [
        2
      ],
      "matrix": [
        1.0,
        0.0,
        0.0,
        0.0,
        0.0,
        0.0,
        1.0,
        0.0,
        0.0,
        -1.0,
        0.0,
        0.0,
        0.0,
        0.0,
        0.0,
        1.0
      ],
      "name": "721cfd738ac3495e885cb5f54e669703.fbx"
    },
    {
      "children": [
        3
      ],
      "name": "RootNode"
    },
    {
      "children": [
        4
      ],
      "matrix": [
        0.7979225436496613,
        -1.3390732061181185,
        -1.3820426645243784,
        0.0,
        0.15816045178570098,
        0.3769765915348732,
        -0.27394195040624847,
        0.0,
        0.8660254333520261,
        -3.348486554699548e-08,
        0.4999999487874318,
        0.0,
        4.605241775512695,
        38.4747428894043,
        7.013651611487148e-06,
        1.0
      ],
      "name": "machete"
    },
    {
      "children": [
        5
      ],
      "matrix": [
        1.0,
        0.0,
        -0.0,
        0.0,
        0.0,
        1.0,
        0.0,
        0.0,
        0.0,
        0.0,
        1.0,
        0.0,
        -9.948029518127441,
        25.8539981842041,
        -7.569789886474609e-06,
        1.0
      ],
      "name": "Object_4"
    },
    {
      "mesh": 0,
      "name": "machete__0"
    }
  ],
  "samplers": [
    {
      "magFilter": 9729,
      "minFilter": 9987,
      "wrapS": 10497,
      "wrapT": 10497
    }
  ],
  "scene": 0,
  "scenes": [
    {
      "name": "Sketchfab_Scene",
      "nodes": [
        0
      ]
    }
  ],
  "textures": [
    {
      "sampler": 0,
      "source": 0
    },
    {
      "sampler": 0,
      "source": 1
    },
    {
      "sampler": 0,
      "source": 2
    }
  ]
}
